<?xml version="1.0" encoding="UTF-8" standalone="no"?>
<!DOCTYPE svg PUBLIC "-//W3C//DTD SVG 1.1//EN" "http://www.w3.org/Graphics/SVG/1.1/DTD/svg11.dtd">
<svg width="100%" height="100%" viewBox="0 0 800 800" version="1.1" xmlns="http://www.w3.org/2000/svg" xmlns:xlink="http://www.w3.org/1999/xlink" xml:space="preserve" xmlns:serif="http://www.serif.com/" style="fill-rule:evenodd;clip-rule:evenodd;stroke-linecap:round;stroke-linejoin:round;stroke-miterlimit:1.5;">
    <g transform="matrix(-1,0,0,1,800.048,0)">
        <path d="M0,0L800.048,800.048" style="fill:none;stroke:black;stroke-width:5px;"/>
    </g>
    <path d="M0,0L800.048,800.048" style="fill:none;stroke:black;stroke-width:5px;"/>
    <g transform="matrix(0.707107,0.5,-0.707107,0.5,400.024,1.02261e-13)">
        <path d="M0,0L800.048,800.048" style="fill:none;stroke:black;stroke-width:7.07px;stroke-linecap:butt;"/>
    </g>
    <g transform="matrix(0.5,-0.707107,0.5,0.707107,3.7932e-14,400.024)">
        <path d="M0,0L800.048,800.048" style="fill:none;stroke:black;stroke-width:7.07px;stroke-linecap:butt;"/>
    </g>
    <g transform="matrix(0.5,-0.707107,0.5,0.707107,3.7932e-14,203.024)">
        <path d="M0,0L800.048,800.048" style="fill:none;stroke:black;stroke-width:7.07px;stroke-linecap:butt;"/>
    </g>
    <g transform="matrix(0.5,-0.707107,0.5,0.707107,3.7932e-14,600.024)">
        <path d="M0,0L800.048,800.048" style="fill:none;stroke:black;stroke-width:7.07px;stroke-linecap:butt;"/>
    </g>
    <g transform="matrix(-0.707107,-0.5,0.707107,-0.5,201.524,801.548)">
        <path d="M0,0L800.048,800.048" style="fill:none;stroke:black;stroke-width:7.07px;stroke-linecap:butt;"/>
    </g>
    <g transform="matrix(-0.707107,-0.5,0.707107,-0.5,598.524,801.548)">
        <path d="M0,0L800.048,800.048" style="fill:none;stroke:black;stroke-width:7.07px;stroke-linecap:butt;"/>
    </g>
    <g transform="matrix(1,0,0,1,0,96.0718)">
        <path d="M400.024,-95.976C620.777,-95.976 800,83.247 800,304C800,524.753 620.777,703.976 400.024,703.976C179.271,703.976 0.048,524.753 0.048,304C0.048,83.247 179.271,-95.976 400.024,-95.976ZM400.024,-90.976C618.017,-90.976 795,86.007 795,304C795,521.993 618.017,698.976 400.024,698.976C182.031,698.976 5.048,521.993 5.048,304C5.048,86.007 182.031,-90.976 400.024,-90.976Z"/>
    </g>
    <g transform="matrix(0.703732,0,0,0.703732,118.966,186.589)">
        <path d="M400.024,-95.976C620.777,-95.976 800,83.247 800,304C800,524.753 620.777,703.976 400.024,703.976C179.271,703.976 0.048,524.753 0.048,304C0.048,83.247 179.271,-95.976 400.024,-95.976ZM400.024,-88.871C616.855,-88.871 792.895,87.169 792.895,304C792.895,520.831 616.855,696.871 400.024,696.871C183.192,696.871 7.153,520.831 7.153,304C7.153,87.169 183.192,-88.871 400.024,-88.871Z"/>
    </g>
    <g transform="matrix(0.495685,0,0,0.495685,201.976,249.622)">
        <path d="M400.024,-95.976C620.777,-95.976 800,83.247 800,304C800,524.753 620.777,703.976 400.024,703.976C179.271,703.976 0.048,524.753 0.048,304C0.048,83.247 179.271,-95.976 400.024,-95.976ZM400.024,-85.889C615.21,-85.889 789.913,88.814 789.913,304C789.913,519.186 615.21,693.889 400.024,693.889C184.838,693.889 10.135,519.186 10.135,304C10.135,88.814 184.838,-85.889 400.024,-85.889Z"/>
    </g>
    <g transform="matrix(0.25567,0,0,0.25567,297.988,322.586)">
        <path d="M400.024,-95.976C620.777,-95.976 800,83.247 800,304C800,524.753 620.777,703.976 400.024,703.976C179.271,703.976 0.048,524.753 0.048,304C0.048,83.247 179.271,-95.976 400.024,-95.976ZM400.024,-76.42C609.983,-76.42 780.444,94.041 780.444,304C780.444,513.959 609.983,684.42 400.024,684.42C190.065,684.42 19.604,513.959 19.604,304C19.604,94.041 190.065,-76.42 400.024,-76.42Z"/>
    </g>
    <path d="M681,120L119,120L119,682L681,682L681,120ZM676,125L676,677C676,677 179.371,677 124,677C124,677 124,125 124,125C179.371,125 676,125 676,125L676,125Z"/>
</svg>
