<?xml version="1.0" encoding="UTF-8" standalone="no"?>
<!DOCTYPE svg PUBLIC "-//W3C//DTD SVG 1.1//EN" "http://www.w3.org/Graphics/SVG/1.1/DTD/svg11.dtd">
<svg width="100%" height="100%" viewBox="0 0 1088 342" version="1.1" xmlns="http://www.w3.org/2000/svg" xmlns:xlink="http://www.w3.org/1999/xlink" xml:space="preserve" xmlns:serif="http://www.serif.com/" style="fill-rule:evenodd;clip-rule:evenodd;stroke-linejoin:round;stroke-miterlimit:2;">
    <g transform="matrix(4.16667,0,0,4.16667,0,0)">
        <g transform="matrix(1,0,0,1,12.9215,0)">
            <path d="M6.427,75.659L6.427,8.543L115.397,14.651L228.082,8.543L228.082,75.659L115.397,69.557L6.427,75.659Z" style="fill:rgb(255,242,0);fill-rule:nonzero;"/>
        </g>
        <g transform="matrix(1,0,0,1,12.9215,0)">
            <path d="M234.384,2.577L231.431,2.756L118.148,9.138L3.748,2.756L0.773,2.577L0.773,81.625L3.748,81.473L118.148,75.059L231.431,81.473L234.384,81.625L234.384,2.577ZM6.427,75.659L6.427,8.543L115.397,14.651L228.082,8.543L228.082,75.659L115.397,69.557L6.427,75.659Z" style="fill:rgb(145,38,143);fill-rule:nonzero;"/>
        </g>
        <g transform="matrix(1,0,0,1,12.9215,0)">
            <path d="M105.405,33.307L98.197,38.267L98.243,27.296L105.405,27.296L105.405,33.307ZM112.561,22.931L91.075,22.931L91.075,62.745L98.243,62.745L98.23,44.428L112.561,34.92L112.561,22.931Z" style="fill:rgb(145,38,143);fill-rule:nonzero;"/>
        </g>
        <g transform="matrix(1,0,0,1,12.9215,0)">
            <path d="M74.749,29.042L67.595,33.451L67.595,40.78L74.749,40.78L74.749,29.042ZM74.749,23.05L81.91,23.05L81.91,62.864L74.749,62.864L74.749,45.143L67.595,45.143L67.595,62.864L60.406,62.864L60.406,31.647L74.709,23.144" style="fill:rgb(145,38,143);fill-rule:nonzero;"/>
        </g>
        <g transform="matrix(1,0,0,1,12.9215,0)">
            <path d="M125.119,57.309L125.119,27.177L132.576,27.177L132.576,22.799L117.924,22.799L117.924,59.288L118.043,59.241L130.83,66.428L135.664,63.215L125.119,57.309Z" style="fill:rgb(145,38,143);fill-rule:nonzero;"/>
        </g>
        <g transform="matrix(1,0,0,1,12.9215,0)">
            <path d="M216.775,22.847L216.775,27.177L209.296,27.177L209.296,40.7L216.775,40.7L216.775,45.069L209.296,45.069L209.304,57.309L219.877,63.215L215.023,66.428L202.24,59.241L202.128,59.288L202.128,22.847L216.775,22.847Z" style="fill:rgb(145,38,143);fill-rule:nonzero;"/>
        </g>
        <g transform="matrix(1,0,0,1,12.9215,0)">
            <path d="M44.608,22.787L33.664,29.061L22.865,22.787L15.69,22.787L15.69,63.155L22.865,63.155L22.865,28.87L30.06,33.088L30.06,33.207L30.041,33.207L30.041,63.155L37.195,63.155L37.195,33.207L37.176,33.207L37.189,33.088L44.608,28.811L44.608,63.155L51.764,63.155L51.764,22.787L44.608,22.787Z" style="fill:rgb(145,38,143);fill-rule:nonzero;"/>
        </g>
        <g transform="matrix(1,0,0,1,12.9215,0)">
            <path d="M163.449,22.481L149.134,22.481L141.953,26.853L141.953,62.852L156.289,62.852L163.449,58.475L163.449,22.481ZM156.289,58.475L149.134,58.475L149.134,26.853L156.289,26.853L156.289,58.475Z" style="fill:rgb(145,38,143);fill-rule:nonzero;"/>
        </g>
        <g transform="matrix(1,0,0,1,12.9215,0)">
            <path d="M179.683,62.944L172.158,62.944L172.158,22.494L179.683,22.494L194.761,30.773L194.728,30.801L194.742,30.801L194.742,54.598L179.683,62.944ZM179.707,56.948L187.203,52.702L187.203,32.764L179.707,28.506L179.707,56.948Z" style="fill:rgb(145,38,143);fill-rule:nonzero;"/>
        </g>
    </g>
</svg>
